<?xml version="1.0" encoding="UTF-8" standalone="no"?>
<svg xmlns="http://www.w3.org/2000/svg" xmlns:xlink="http://www.w3.org/1999/xlink" focusable="true" height="486.0" id="workspace" preserveAspectRatio="xMinYMin" viewBox="-780.0 -240.0 1732.0 486.0" width="1732.0">
<path d="M-468,47 C-478,47 -490,39 -500,39" fill="#495879" fill-opacity="1" stroke="#495879" stroke-opacity="1" stroke-width="1px" style="fill:none " visibility="visible"/>
<rect fill="#CC0033" fill-opacity="0.4" height="42" rx="0" ry="0" stroke="#FF9933" stroke-opacity="0.4" stroke-width="1px" visibility="hidden" width="488" x="-244" y="-21"/>
<path d="M-523,38 C-504.6666666666667,40.666666666666664 -486.3333333333333,43.333333333333336 -468,46" fill-opacity="0.4" stroke="#CC0033" stroke-opacity="0.4" stroke-width="1px" style="fill:none " visibility="hidden"/>
<path d="M-283,-43 C-188.66666666666669,-28.66666666666667 -94.33333333333333,-14.333333333333332 0,0" fill-opacity="0.4" stroke="#CC0033" stroke-opacity="0.4" stroke-width="1px" style="fill:none " visibility="hidden"/>
<path d="M-341,0 C-350,0 -361,47 -370,47" fill="#495879" fill-opacity="1" stroke="#495879" stroke-opacity="1" stroke-width="1px" style="fill:none " visibility="visible"/>
<path d="M-448,21 C-458,21 -468,13 -478,13" fill="#495879" fill-opacity="1" stroke="#495879" stroke-opacity="1" stroke-width="1px" style="fill:none " visibility="visible"/>
<path d="M-480,-5 C-490,-5 -502,-13 -512,-13" fill="#495879" fill-opacity="1" stroke="#495879" stroke-opacity="1" stroke-width="1px" style="fill:none " visibility="visible"/>
<path d="M-341,0 C-351,0 -361,21 -371,21" fill="#495879" fill-opacity="1" stroke="#495879" stroke-opacity="1" stroke-width="1px" style="fill:none " visibility="visible"/>
<path d="M-341,0 C-350,0 -361,-5 -370,-5" fill="#495879" fill-opacity="1" stroke="#495879" stroke-opacity="1" stroke-width="1px" style="fill:none " visibility="visible"/>
<path d="M-500,-31 C-510,-31 -520,-39 -530,-39" fill="#495879" fill-opacity="1" stroke="#495879" stroke-opacity="1" stroke-width="1px" style="fill:none " visibility="visible"/>
<path d="M-341,0 C-351,0 -361,-31 -371,-31" fill="#495879" fill-opacity="1" stroke="#495879" stroke-opacity="1" stroke-width="1px" style="fill:none " visibility="visible"/>
<path d="M0,0 C-91,0 -182,0 -273,0 -182,3 -91,5 0,7 Z" fill="#495879" fill-opacity="1" stroke="#495879" stroke-opacity="1" stroke-width="1px" style="fill:#495879 " visibility="visible"/>
<path d="M667,86 C677,86 688,78 698,78" fill="#495879" fill-opacity="1" stroke="#495879" stroke-opacity="1" stroke-width="1px" style="fill:none " visibility="visible"/>
<path d="M473,52 C482,52 493,86 502,86" fill="#495879" fill-opacity="1" stroke="#495879" stroke-opacity="1" stroke-width="1px" style="fill:none " visibility="visible"/>
<path d="M439,164 C449,164 460,156 470,156" fill="#495879" fill-opacity="1" stroke="#495879" stroke-opacity="1" stroke-width="1px" style="fill:none " visibility="visible"/>
<path d="M463,190 C473,190 484,182 494,182" fill="#495879" fill-opacity="1" stroke="#495879" stroke-opacity="1" stroke-width="1px" style="fill:none " visibility="visible"/>
<path d="M355,143 C364,143 375,190 384,190" fill="#495879" fill-opacity="1" stroke="#495879" stroke-opacity="1" stroke-width="1px" style="fill:none " visibility="visible"/>
<path d="M355,143 C364,143 375,164 384,164" fill="#495879" fill-opacity="1" stroke="#495879" stroke-opacity="1" stroke-width="1px" style="fill:none " visibility="visible"/>
<path d="M724,-5 C734,-5 745,0 755,0" fill="#495879" fill-opacity="1" stroke="#495879" stroke-opacity="1" stroke-width="1px" style="fill:none " visibility="visible"/>
<path d="M459,138 C469,138 479,130 489,130" fill="#495879" fill-opacity="1" stroke="#495879" stroke-opacity="1" stroke-width="1px" style="fill:none " visibility="visible"/>
<path d="M0,0 C91,0 183,143 274,143 183,146 91,5 0,7 Z" fill="#495879" fill-opacity="1" stroke="#495879" stroke-opacity="1" stroke-width="1px" style="fill:#495879 " visibility="visible"/>
<path d="M0,0 C91,0 183,-130 274,-130 183,-127 91,5 0,7 Z" fill="#495879" fill-opacity="1" stroke="#495879" stroke-opacity="1" stroke-width="1px" style="fill:#495879 " visibility="visible"/>
<path d="M724,-5 C734,-5 745,-26 755,-26" fill="#495879" fill-opacity="1" stroke="#495879" stroke-opacity="1" stroke-width="1px" style="fill:none " visibility="visible"/>
<path d="M762,-44 C772,-44 782,-52 792,-52" fill="#495879" fill-opacity="1" stroke="#495879" stroke-opacity="1" stroke-width="1px" style="fill:none " visibility="visible"/>
<path d="M429,112 C439,112 449,104 459,104" fill="#495879" fill-opacity="1" stroke="#495879" stroke-opacity="1" stroke-width="1px" style="fill:none " visibility="visible"/>
<path d="M623,-174 C633,-174 644,-182 654,-182" fill="#495879" fill-opacity="1" stroke="#495879" stroke-opacity="1" stroke-width="1px" style="fill:none " visibility="visible"/>
<path d="M611,-148 C621,-148 631,-156 641,-156" fill="#495879" fill-opacity="1" stroke="#495879" stroke-opacity="1" stroke-width="1px" style="fill:none " visibility="visible"/>
<path d="M491,-130 C500,-130 511,-148 520,-148" fill="#495879" fill-opacity="1" stroke="#495879" stroke-opacity="1" stroke-width="1px" style="fill:none " visibility="visible"/>
<path d="M585,34 C595,34 605,26 615,26" fill="#495879" fill-opacity="1" stroke="#495879" stroke-opacity="1" stroke-width="1px" style="fill:none " visibility="visible"/>
<path d="M614,60 C624,60 635,52 645,52" fill="#495879" fill-opacity="1" stroke="#495879" stroke-opacity="1" stroke-width="1px" style="fill:none " visibility="visible"/>
<path d="M651,-83 C661,-83 672,-78 682,-78" fill="#495879" fill-opacity="1" stroke="#495879" stroke-opacity="1" stroke-width="1px" style="fill:none " visibility="visible"/>
<path d="M651,-83 C661,-83 672,-104 682,-104" fill="#495879" fill-opacity="1" stroke="#495879" stroke-opacity="1" stroke-width="1px" style="fill:none " visibility="visible"/>
<path d="M601,-122 C611,-122 622,-130 632,-130" fill="#495879" fill-opacity="1" stroke="#495879" stroke-opacity="1" stroke-width="1px" style="fill:none " visibility="visible"/>
<path d="M355,143 C364,143 375,138 384,138" fill="#495879" fill-opacity="1" stroke="#495879" stroke-opacity="1" stroke-width="1px" style="fill:none " visibility="visible"/>
<path d="M473,52 C482,52 492,60 501,60" fill="#495879" fill-opacity="1" stroke="#495879" stroke-opacity="1" stroke-width="1px" style="fill:none " visibility="visible"/>
<path d="M605,-26 C614,-26 624,-5 633,-5" fill="#495879" fill-opacity="1" stroke="#495879" stroke-opacity="1" stroke-width="1px" style="fill:none " visibility="visible"/>
<path d="M491,-130 C500,-130 511,-122 520,-122" fill="#495879" fill-opacity="1" stroke="#495879" stroke-opacity="1" stroke-width="1px" style="fill:none " visibility="visible"/>
<path d="M605,-26 C614,-26 624,-44 633,-44" fill="#495879" fill-opacity="1" stroke="#495879" stroke-opacity="1" stroke-width="1px" style="fill:none " visibility="visible"/>
<path d="M355,143 C364,143 375,112 384,112" fill="#495879" fill-opacity="1" stroke="#495879" stroke-opacity="1" stroke-width="1px" style="fill:none " visibility="visible"/>
<path d="M473,52 C482,52 493,34 502,34" fill="#495879" fill-opacity="1" stroke="#495879" stroke-opacity="1" stroke-width="1px" style="fill:none " visibility="visible"/>
<path d="M491,-130 C500,-130 511,-83 520,-83" fill="#495879" fill-opacity="1" stroke="#495879" stroke-opacity="1" stroke-width="1px" style="fill:none " visibility="visible"/>
<path d="M491,-130 C500,-130 511,-174 520,-174" fill="#495879" fill-opacity="1" stroke="#495879" stroke-opacity="1" stroke-width="1px" style="fill:none " visibility="visible"/>
<path d="M0,0 C91,0 183,-26 274,-26 183,-23 91,5 0,7 Z" fill="#495879" fill-opacity="1" stroke="#495879" stroke-opacity="1" stroke-width="1px" style="fill:#495879 " visibility="visible"/>
<path d="M0,0 C91,0 183,52 274,52 183,55 91,5 0,7 Z" fill="#495879" fill-opacity="1" stroke="#495879" stroke-opacity="1" stroke-width="1px" style="fill:#495879 " visibility="visible"/>
<g focusable="true" height="100" preserveAspectRatio="none" transform="translate(-242,-19) scale(1,1)" visibility="visible" width="100">
<rect fill="rgb(244,184,45)" fill-opacity="1" height="44" rx="6.6" ry="6.6" stroke="rgb(241,163,39)" stroke-opacity="1" stroke-width="1px" style="cursor: default;" width="488" x="-2" y="-3"/>
<rect fill="rgb(57, 113, 177)" height="38" rx="5.7" ry="5.7" stroke="rgb(57, 113, 177)" stroke-width="2px" style="cursor: default;" width="484" x="0" y="0"/>
<text fill="#ffffff" font-family="verdana" font-size="13.4375" font-style="normal" font-weight="bold" style="cursor: default;" visibility="visible" x="11" y="11">
<tspan dy="1em" x="11">Développer la clientèle pour passer de 5 à 8 points de vente</tspan>
</text>
<g focusable="true" height="16" preserveAspectRatio="none" transform="translate(0,11) scale(0,0.16)" width="0"/>
</g>
<g focusable="true" height="100" preserveAspectRatio="none" transform="translate(272,-139) scale(1,1)" visibility="visible" width="100">
<rect fill="rgb(252,235,192)" fill-opacity="0" height="25" rx="3.75" ry="3.75" stroke="rgb(241,163,39)" stroke-opacity="0" stroke-width="1px" style="cursor: move;" width="222" x="-2" y="-3"/>
<rect fill="rgb(12, 52, 61)" height="19" rx="2.85" ry="2.85" stroke="rgb(12, 52, 61)" stroke-width="2px" style="cursor: move;" visibility="visible" width="218" x="0" y="0"/>
<text fill="rgb(254, 255, 255)" font-family="verdana" font-size="10.75" font-style="normal" font-weight="normal" style="cursor: move;" visibility="visible" x="3" y="3">
<tspan dy="1em" x="3">Haran (Commercial, acheteur fréquent)</tspan>
</text>
<g focusable="true" height="13" preserveAspectRatio="none" transform="translate(0,3) scale(0,0.13)" width="0"/>
<ellipse cx="221" cy="9.5" fill="rgb(12, 52, 61)" height="6" rx="3" ry="3" stroke="rgb(12, 52, 61)" stroke-width="1px" style="cursor: default;" visibility="visible" width="6"/>
</g>
<g focusable="true" height="100" preserveAspectRatio="none" transform="translate(272,42) scale(1,1)" visibility="visible" width="100">
<rect fill="rgb(252,235,192)" fill-opacity="0" height="25" rx="3.75" ry="3.75" stroke="rgb(241,163,39)" stroke-opacity="0" stroke-width="1px" style="cursor: move;" width="203" x="-2" y="-3"/>
<rect fill="rgb(12, 52, 61)" height="19" rx="2.85" ry="2.85" stroke="rgb(12, 52, 61)" stroke-width="2px" style="cursor: move;" width="199" x="0" y="0"/>
<text fill="rgb(254, 255, 255)" font-family="verdana" font-size="10.75" font-style="normal" font-weight="normal" style="cursor: move;" visibility="visible" x="3" y="3">
<tspan dy="1em" x="3">Tristan (Etudiant acheteur fréquent)</tspan>
</text>
<g focusable="true" height="13" preserveAspectRatio="none" transform="translate(0,3) scale(0,0.13)" width="0"/>
<ellipse cx="202" cy="9.5" fill="rgb(12, 52, 61)" height="6" rx="3" ry="3" stroke="rgb(12, 52, 61)" stroke-width="1px" style="cursor: default;" visibility="visible" width="6"/>
</g>
<g focusable="true" height="100" preserveAspectRatio="none" transform="translate(272,-35) scale(1,1)" visibility="visible" width="100">
<rect fill="rgb(252,235,192)" fill-opacity="0" height="25" rx="3.75" ry="3.75" stroke="rgb(241,163,39)" stroke-opacity="0" stroke-width="1px" style="cursor: move;" width="335" x="-2" y="-3"/>
<rect fill="rgb(12, 52, 61)" height="19" rx="2.85" ry="2.85" stroke="rgb(12, 52, 61)" stroke-width="2px" style="cursor: move;" width="331" x="0" y="0"/>
<text fill="rgb(254, 255, 255)" font-family="verdana" font-size="10.75" font-style="normal" font-weight="normal" style="cursor: move;" visibility="visible" x="3" y="3">
<tspan dy="1em" x="3">Caroline (Employée administrative acheteuse occasionnelle)</tspan>
</text>
<g focusable="true" height="13" preserveAspectRatio="none" transform="translate(0,3) scale(0,0.13)" width="0"/>
<ellipse cx="334" cy="9.5" fill="rgb(12, 52, 61)" height="6" rx="3" ry="3" stroke="rgb(12, 52, 61)" stroke-width="1px" style="cursor: default;" visibility="visible" width="6"/>
</g>
<g focusable="true" height="100" preserveAspectRatio="none" transform="translate(272,133) scale(1,1)" visibility="visible" width="100">
<rect fill="rgb(252,235,192)" fill-opacity="0" height="25" rx="3.75" ry="3.75" stroke="rgb(241,163,39)" stroke-opacity="0" stroke-width="1px" style="cursor: move;" width="86" x="-2" y="-3"/>
<rect fill="rgb(12, 52, 61)" height="19" rx="2.85" ry="2.85" stroke="rgb(12, 52, 61)" stroke-width="2px" style="cursor: move;" visibility="visible" width="82" x="0" y="0"/>
<text fill="rgb(254, 255, 255)" font-family="verdana" font-size="10.75" font-style="normal" font-weight="normal" style="cursor: move;" visibility="visible" x="3" y="3">
<tspan dy="1em" x="3">Linda (Artiste)</tspan>
</text>
<g focusable="true" height="13" preserveAspectRatio="none" transform="translate(0,3) scale(0,0.13)" width="0"/>
<ellipse cx="85" cy="9.5" fill="rgb(12, 52, 61)" height="6" rx="3" ry="3" stroke="rgb(12, 52, 61)" stroke-width="1px" style="cursor: default;" visibility="visible" width="6"/>
</g>
<g focusable="true" height="100" preserveAspectRatio="none" transform="translate(520,-190) scale(1,1)" visibility="visible" width="100">
<rect fill="rgb(252,235,192)" fill-opacity="0" height="22" rx="3.3" ry="3.3" stroke="rgb(241,163,39)" stroke-opacity="0" stroke-width="1px" style="cursor: move;" width="106" x="-2" y="-3"/>
<line stroke="#495879" stroke-opacity="1" stroke-width="1px" style="cursor: move;" x1="0" x2="102" y1="16" y2="16"/>
<text fill="rgb(12, 52, 61)" font-family="verdana" font-size="8.0625" font-style="normal" font-weight="normal" style="cursor: move;" visibility="visible" x="3" y="3">
<tspan dy="1em" x="3">Commande tard le soir</tspan>
</text>
<g focusable="true" height="10" preserveAspectRatio="none" transform="translate(0,3) scale(0,0.1)" width="0"/>
<ellipse cx="105" cy="16" fill="rgb(57, 113, 177)" height="6" rx="3" ry="3" stroke="rgb(57, 113, 177)" stroke-width="1px" style="cursor: default;" visibility="visible" width="6"/>
</g>
<g focusable="true" height="100" preserveAspectRatio="none" transform="translate(520,-99) scale(1,1)" visibility="visible" width="100">
<rect fill="rgb(252,235,192)" fill-opacity="0" height="22" rx="3.3" ry="3.3" stroke="rgb(241,163,39)" stroke-opacity="0" stroke-width="1px" style="cursor: move;" width="134" x="-2" y="-3"/>
<line stroke="#495879" stroke-opacity="1" stroke-width="1px" style="cursor: move;" x1="0" x2="130" y1="16" y2="16"/>
<text fill="rgb(12, 52, 61)" font-family="verdana" font-size="8.0625" font-style="normal" font-weight="normal" style="cursor: move;" visibility="visible" x="3" y="3">
<tspan dy="1em" x="3">Commander et payer en ligne</tspan>
</text>
<g focusable="true" height="10" preserveAspectRatio="none" transform="translate(0,3) scale(0,0.1)" width="0"/>
<ellipse cx="133" cy="16" fill="rgb(57, 113, 177)" height="6" rx="3" ry="3" stroke="rgb(57, 113, 177)" stroke-width="1px" style="cursor: default;" visibility="visible" width="6"/>
</g>
<g focusable="true" height="100" preserveAspectRatio="none" transform="translate(633,-60) scale(1,1)" visibility="visible" width="100">
<rect fill="rgb(252,235,192)" fill-opacity="0" height="22" rx="3.3" ry="3.3" stroke="rgb(241,163,39)" stroke-opacity="0" stroke-width="1px" style="cursor: move;" width="131" x="-2" y="-3"/>
<line stroke="#495879" stroke-opacity="1" stroke-width="1px" style="cursor: move;" x1="0" x2="127" y1="16" y2="16"/>
<text fill="rgb(12, 52, 61)" font-family="verdana" font-size="8.0625" font-style="normal" font-weight="normal" style="cursor: move;" visibility="visible" x="3" y="3">
<tspan dy="1em" x="3">Veut déconnecter des écrans</tspan>
</text>
<g focusable="true" height="10" preserveAspectRatio="none" transform="translate(0,3) scale(0,0.1)" width="0"/>
<ellipse cx="130" cy="16" fill="rgb(57, 113, 177)" height="6" rx="3" ry="3" stroke="rgb(57, 113, 177)" stroke-width="1px" style="cursor: default;" visibility="visible" width="6"/>
</g>
<g focusable="true" height="100" preserveAspectRatio="none" transform="translate(502,18) scale(1,1)" visibility="visible" width="100">
<rect fill="rgb(252,235,192)" fill-opacity="0" height="22" rx="3.3" ry="3.3" stroke="rgb(241,163,39)" stroke-opacity="0" stroke-width="1px" style="cursor: move;" width="86" x="-2" y="-3"/>
<line stroke="#495879" stroke-opacity="1" stroke-width="1px" style="cursor: move;" x1="0" x2="82" y1="16" y2="16"/>
<text fill="rgb(12, 52, 61)" font-family="verdana" font-size="8.0625" font-style="normal" font-weight="normal" style="cursor: move;" visibility="visible" x="3" y="3">
<tspan dy="1em" x="3">Révise entre amis</tspan>
</text>
<g focusable="true" height="10" preserveAspectRatio="none" transform="translate(0,3) scale(0,0.1)" width="0"/>
<ellipse cx="85" cy="16" fill="rgb(57, 113, 177)" height="6" rx="3" ry="3" stroke="rgb(57, 113, 177)" stroke-width="1px" style="cursor: default;" visibility="visible" width="6"/>
</g>
<g focusable="true" height="100" preserveAspectRatio="none" transform="translate(384,96) scale(1,1)" visibility="visible" width="100">
<rect fill="rgb(252,235,192)" fill-opacity="0" height="22" rx="3.3" ry="3.3" stroke="rgb(241,163,39)" stroke-opacity="0" stroke-width="1px" style="cursor: move;" width="47" x="-2" y="-3"/>
<line stroke="#495879" stroke-opacity="1" stroke-width="1px" style="cursor: move;" x1="0" x2="43" y1="16" y2="16"/>
<text fill="rgb(12, 52, 61)" font-family="verdana" font-size="8.0625" font-style="normal" font-weight="normal" style="cursor: move;" visibility="visible" x="3" y="3">
<tspan dy="1em" x="3">Indécise</tspan>
</text>
<g focusable="true" height="10" preserveAspectRatio="none" transform="translate(0,3) scale(0,0.1)" width="0"/>
<ellipse cx="46" cy="16" fill="rgb(57, 113, 177)" height="6" rx="3" ry="3" stroke="rgb(57, 113, 177)" stroke-width="1px" style="cursor: default;" visibility="visible" width="6"/>
</g>
<g focusable="true" height="100" preserveAspectRatio="none" transform="translate(520,-138) scale(1,1)" visibility="visible" width="100">
<rect fill="rgb(252,235,192)" fill-opacity="0" height="22" rx="3.3" ry="3.3" stroke="rgb(241,163,39)" stroke-opacity="0" stroke-width="1px" style="cursor: move;" width="84" x="-2" y="-3"/>
<line stroke="#495879" stroke-opacity="1" stroke-width="1px" style="cursor: move;" x1="0" x2="80" y1="16" y2="16"/>
<text fill="rgb(12, 52, 61)" font-family="verdana" font-size="8.0625" font-style="normal" font-weight="normal" style="cursor: move;" visibility="visible" x="3" y="3">
<tspan dy="1em" x="3">Mange au bureau</tspan>
</text>
<g focusable="true" height="10" preserveAspectRatio="none" transform="translate(0,3) scale(0,0.1)" width="0"/>
<ellipse cx="83" cy="16" fill="rgb(57, 113, 177)" height="6" rx="3" ry="3" stroke="rgb(57, 113, 177)" stroke-width="1px" style="cursor: default;" visibility="visible" width="6"/>
</g>
<g focusable="true" height="100" preserveAspectRatio="none" transform="translate(633,-21) scale(1,1)" visibility="visible" width="100">
<rect fill="rgb(252,235,192)" fill-opacity="0" height="22" rx="3.3" ry="3.3" stroke="rgb(241,163,39)" stroke-opacity="0" stroke-width="1px" style="cursor: move;" width="94" x="-2" y="-3"/>
<line stroke="#495879" stroke-opacity="1" stroke-width="1px" style="cursor: move;" x1="0" x2="90" y1="16" y2="16"/>
<text fill="rgb(12, 52, 61)" font-family="verdana" font-size="8.0625" font-style="normal" font-weight="normal" style="cursor: move;" visibility="visible" x="3" y="3">
<tspan dy="1em" x="3">Profite de sa famille</tspan>
</text>
<g focusable="true" height="10" preserveAspectRatio="none" transform="translate(0,3) scale(0,0.1)" width="0"/>
<ellipse cx="93" cy="16" fill="rgb(57, 113, 177)" height="6" rx="3" ry="3" stroke="rgb(57, 113, 177)" stroke-width="1px" style="cursor: default;" visibility="visible" width="6"/>
</g>
<g focusable="true" height="100" preserveAspectRatio="none" transform="translate(501,44) scale(1,1)" visibility="visible" width="100">
<rect fill="rgb(252,235,192)" fill-opacity="0" height="22" rx="3.3" ry="3.3" stroke="rgb(241,163,39)" stroke-opacity="0" stroke-width="1px" style="cursor: move;" width="115" x="-2" y="-3"/>
<line stroke="#495879" stroke-opacity="1" stroke-width="1px" style="cursor: move;" x1="0" x2="111" y1="16" y2="16"/>
<text fill="rgb(12, 52, 61)" font-family="verdana" font-size="8.0625" font-style="normal" font-weight="normal" style="cursor: move;" visibility="visible" x="3" y="3">
<tspan dy="1em" x="3">Adepte des smartphones</tspan>
</text>
<g focusable="true" height="10" preserveAspectRatio="none" transform="translate(0,3) scale(0,0.1)" width="0"/>
<ellipse cx="114" cy="16" fill="rgb(57, 113, 177)" height="6" rx="3" ry="3" stroke="rgb(57, 113, 177)" stroke-width="1px" style="cursor: default;" visibility="visible" width="6"/>
</g>
<g focusable="true" height="100" preserveAspectRatio="none" transform="translate(384,122) scale(1,1)" visibility="visible" width="100">
<rect fill="rgb(252,235,192)" fill-opacity="0" height="22" rx="3.3" ry="3.3" stroke="rgb(241,163,39)" stroke-opacity="0" stroke-width="1px" style="cursor: move;" width="77" x="-2" y="-3"/>
<line stroke="#495879" stroke-opacity="1" stroke-width="1px" style="cursor: move;" x1="0" x2="73" y1="16" y2="16"/>
<text fill="rgb(12, 52, 61)" font-family="verdana" font-size="8.0625" font-style="normal" font-weight="normal" style="cursor: move;" visibility="visible" x="3" y="3">
<tspan dy="1em" x="3">Aime le contact</tspan>
</text>
<g focusable="true" height="10" preserveAspectRatio="none" transform="translate(0,3) scale(0,0.1)" width="0"/>
<ellipse cx="76" cy="16" fill="rgb(57, 113, 177)" height="6" rx="3" ry="3" stroke="rgb(57, 113, 177)" stroke-width="1px" style="cursor: default;" visibility="visible" width="6"/>
</g>
<g focusable="true" height="100" preserveAspectRatio="none" transform="translate(630,-138) scale(1,1)" visibility="visible" width="100">
<rect fill="rgb(252,235,192)" fill-opacity="0" height="22" rx="3.3" ry="3.3" stroke="rgb(241,163,39)" stroke-opacity="0" stroke-width="1px" style="cursor: move;" width="95" x="-2" y="-3"/>
<rect fill="rgb(254, 255, 255)" height="16" rx="2.4" ry="2.4" stroke="rgb(39, 78, 19)" stroke-width="2px" style="cursor: move;" width="91" x="0" y="0"/>
<text fill="rgb(39, 78, 19)" font-family="verdana" font-size="8.0625" font-style="normal" font-weight="normal" style="cursor: move;" visibility="visible" x="3" y="3">
<tspan dy="1em" x="3">Service de Livraison</tspan>
</text>
<g focusable="true" height="10" preserveAspectRatio="none" transform="translate(0,3) scale(0,0.1)" width="0"/>
<ellipse cx="3" cy="3" fill="rgb(254, 255, 255)" height="6" rx="3" ry="3" stroke="rgb(39, 78, 19)" stroke-width="1px" style="cursor: default;" visibility="hidden" width="6"/>
</g>
<g focusable="true" height="100" preserveAspectRatio="none" transform="translate(680,-112) scale(1,1)" visibility="visible" width="100">
<rect fill="rgb(252,235,192)" fill-opacity="0" height="22" rx="3.3" ry="3.3" stroke="rgb(241,163,39)" stroke-opacity="0" stroke-width="1px" style="cursor: move;" width="48" x="-2" y="-3"/>
<rect fill="rgb(254, 255, 255)" height="16" rx="2.4" ry="2.4" stroke="rgb(39, 78, 19)" stroke-width="2px" style="cursor: move;" width="44" x="0" y="0"/>
<text fill="rgb(39, 78, 19)" font-family="verdana" font-size="8.0625" font-style="normal" font-weight="normal" style="cursor: move;" visibility="visible" x="3" y="3">
<tspan dy="1em" x="3">Site web</tspan>
</text>
<g focusable="true" height="10" preserveAspectRatio="none" transform="translate(0,3) scale(0,0.1)" width="0"/>
<ellipse cx="3" cy="3" fill="rgb(254, 255, 255)" height="6" rx="3" ry="3" stroke="rgb(39, 78, 19)" stroke-width="1px" style="cursor: default;" visibility="hidden" width="6"/>
</g>
<g focusable="true" height="100" preserveAspectRatio="none" transform="translate(680,-86) scale(1,1)" visibility="visible" width="100">
<rect fill="rgb(252,235,192)" fill-opacity="0" height="22" rx="3.3" ry="3.3" stroke="rgb(241,163,39)" stroke-opacity="0" stroke-width="1px" style="cursor: move;" width="137" x="-2" y="-3"/>
<rect fill="rgb(254, 255, 255)" height="16" rx="2.4" ry="2.4" stroke="rgb(39, 78, 19)" stroke-width="2px" style="cursor: move;" width="133" x="0" y="0"/>
<text fill="rgb(39, 78, 19)" font-family="verdana" font-size="8.0625" font-style="normal" font-weight="normal" style="cursor: move;" visibility="visible" x="3" y="3">
<tspan dy="1em" x="3">Système de paiement en ligne</tspan>
</text>
<g focusable="true" height="10" preserveAspectRatio="none" transform="translate(0,3) scale(0,0.1)" width="0"/>
<ellipse cx="3" cy="3" fill="rgb(254, 255, 255)" height="6" rx="3" ry="3" stroke="rgb(39, 78, 19)" stroke-width="1px" style="cursor: default;" visibility="hidden" width="6"/>
</g>
<g focusable="true" height="100" preserveAspectRatio="none" transform="translate(643,44) scale(1,1)" visibility="visible" width="100">
<rect fill="rgb(252,235,192)" fill-opacity="0" height="22" rx="3.3" ry="3.3" stroke="rgb(241,163,39)" stroke-opacity="0" stroke-width="1px" style="cursor: move;" width="80" x="-2" y="-3"/>
<rect fill="rgb(254, 255, 255)" height="16" rx="2.4" ry="2.4" stroke="rgb(39, 78, 19)" stroke-width="2px" style="cursor: move;" width="76" x="0" y="0"/>
<text fill="rgb(39, 78, 19)" font-family="verdana" font-size="8.0625" font-style="normal" font-weight="normal" style="cursor: move;" visibility="visible" x="3" y="3">
<tspan dy="1em" x="3">Interface mobile</tspan>
</text>
<g focusable="true" height="10" preserveAspectRatio="none" transform="translate(0,3) scale(0,0.1)" width="0"/>
<ellipse cx="3" cy="3" fill="rgb(254, 255, 255)" height="6" rx="3" ry="3" stroke="rgb(39, 78, 19)" stroke-width="1px" style="cursor: default;" visibility="hidden" width="6"/>
</g>
<g focusable="true" height="100" preserveAspectRatio="none" transform="translate(613,18) scale(1,1)" visibility="visible" width="100">
<rect fill="rgb(252,235,192)" fill-opacity="0" height="22" rx="3.3" ry="3.3" stroke="rgb(241,163,39)" stroke-opacity="0" stroke-width="1px" style="cursor: move;" width="147" x="-2" y="-3"/>
<rect fill="rgb(254, 255, 255)" height="16" rx="2.4" ry="2.4" stroke="rgb(39, 78, 19)" stroke-width="2px" style="cursor: move;" width="143" x="0" y="0"/>
<text fill="rgb(39, 78, 19)" font-family="verdana" font-size="8.0625" font-style="normal" font-weight="normal" style="cursor: move;" visibility="visible" x="3" y="3">
<tspan dy="1em" x="3">Paiement à la livraison en liquide</tspan>
</text>
<g focusable="true" height="10" preserveAspectRatio="none" transform="translate(0,3) scale(0,0.1)" width="0"/>
<ellipse cx="3" cy="3" fill="rgb(254, 255, 255)" height="6" rx="3" ry="3" stroke="rgb(39, 78, 19)" stroke-width="1px" style="cursor: default;" visibility="hidden" width="6"/>
</g>
<g focusable="true" height="100" preserveAspectRatio="none" transform="translate(520,-164) scale(1,1)" visibility="visible" width="100">
<rect fill="rgb(252,235,192)" fill-opacity="0" height="22" rx="3.3" ry="3.3" stroke="rgb(241,163,39)" stroke-opacity="0" stroke-width="1px" style="cursor: move;" width="93" x="-2" y="-3"/>
<line stroke="#495879" stroke-opacity="1" stroke-width="1px" style="cursor: move;" x1="0" x2="89" y1="16" y2="16"/>
<text fill="rgb(12, 52, 61)" font-family="verdana" font-size="8.0625" font-style="normal" font-weight="normal" style="cursor: move;" visibility="visible" x="3" y="3">
<tspan dy="1em" x="3">Routine alimentaire</tspan>
</text>
<g focusable="true" height="10" preserveAspectRatio="none" transform="translate(0,3) scale(0,0.1)" width="0"/>
<ellipse cx="92" cy="16" fill="rgb(57, 113, 177)" height="6" rx="3" ry="3" stroke="rgb(57, 113, 177)" stroke-width="1px" style="cursor: default;" visibility="visible" width="6"/>
</g>
<g focusable="true" height="100" preserveAspectRatio="none" transform="translate(639,-164) scale(1,1)" visibility="visible" width="100">
<rect fill="rgb(252,235,192)" fill-opacity="0" height="22" rx="3.3" ry="3.3" stroke="rgb(241,163,39)" stroke-opacity="0" stroke-width="1px" style="cursor: move;" width="92" x="-2" y="-3"/>
<rect fill="rgb(254, 255, 255)" height="16" rx="2.4" ry="2.4" stroke="rgb(39, 78, 19)" stroke-width="2px" style="cursor: move;" width="88" x="0" y="0"/>
<text fill="rgb(39, 78, 19)" font-family="verdana" font-size="8.0625" font-style="normal" font-weight="normal" style="cursor: move;" visibility="visible" x="3" y="3">
<tspan dy="1em" x="3">Système de Favoris</tspan>
</text>
<g focusable="true" height="10" preserveAspectRatio="none" transform="translate(0,3) scale(0,0.1)" width="0"/>
<ellipse cx="3" cy="3" fill="rgb(254, 255, 255)" height="6" rx="3" ry="3" stroke="rgb(39, 78, 19)" stroke-width="1px" style="cursor: default;" visibility="hidden" width="6"/>
</g>
<g focusable="true" height="100" preserveAspectRatio="none" transform="translate(652,-190) scale(1,1)" visibility="visible" width="100">
<rect fill="rgb(252,235,192)" fill-opacity="0" height="22" rx="3.3" ry="3.3" stroke="rgb(241,163,39)" stroke-opacity="0" stroke-width="1px" style="cursor: move;" width="101" x="-2" y="-3"/>
<rect fill="rgb(254, 255, 255)" height="16" rx="2.4" ry="2.4" stroke="rgb(39, 78, 19)" stroke-width="2px" style="cursor: move;" width="97" x="0" y="0"/>
<text fill="rgb(39, 78, 19)" font-family="verdana" font-size="8.0625" font-style="normal" font-weight="normal" style="cursor: move;" visibility="visible" x="3" y="3">
<tspan dy="1em" x="3">Ouverture tard le soir</tspan>
</text>
<g focusable="true" height="10" preserveAspectRatio="none" transform="translate(0,3) scale(0,0.1)" width="0"/>
<ellipse cx="3" cy="3" fill="rgb(254, 255, 255)" height="6" rx="3" ry="3" stroke="rgb(39, 78, 19)" stroke-width="1px" style="cursor: default;" visibility="hidden" width="6"/>
</g>
<g focusable="true" height="100" preserveAspectRatio="none" transform="translate(457,96) scale(1,1)" visibility="visible" width="100">
<rect fill="rgb(252,235,192)" fill-opacity="0" height="22" rx="3.3" ry="3.3" stroke="rgb(241,163,39)" stroke-opacity="0" stroke-width="1px" style="cursor: move;" width="162" x="-2" y="-3"/>
<rect fill="rgb(254, 255, 255)" height="16" rx="2.4" ry="2.4" stroke="rgb(39, 78, 19)" stroke-width="2px" style="cursor: move;" width="158" x="0" y="0"/>
<text fill="rgb(39, 78, 19)" font-family="verdana" font-size="8.0625" font-style="normal" font-weight="normal" style="cursor: move;" visibility="visible" x="3" y="3">
<tspan dy="1em" x="3">Possibilité de modifier sa commande</tspan>
</text>
<g focusable="true" height="10" preserveAspectRatio="none" transform="translate(0,3) scale(0,0.1)" width="0"/>
<ellipse cx="3" cy="3" fill="rgb(254, 255, 255)" height="6" rx="3" ry="3" stroke="rgb(39, 78, 19)" stroke-width="1px" style="cursor: default;" visibility="hidden" width="6"/>
</g>
<g focusable="true" height="100" preserveAspectRatio="none" transform="translate(790,-60) scale(1,1)" visibility="visible" width="100">
<rect fill="rgb(252,235,192)" fill-opacity="0" height="22" rx="3.3" ry="3.3" stroke="rgb(241,163,39)" stroke-opacity="0" stroke-width="1px" style="cursor: move;" width="99" x="-2" y="-3"/>
<rect fill="rgb(254, 255, 255)" height="16" rx="2.4" ry="2.4" stroke="rgb(39, 78, 19)" stroke-width="2px" style="cursor: move;" width="95" x="0" y="0"/>
<text fill="rgb(39, 78, 19)" font-family="verdana" font-size="8.0625" font-style="normal" font-weight="normal" style="cursor: move;" visibility="visible" x="3" y="3">
<tspan dy="1em" x="3">Service téléphonique</tspan>
</text>
<g focusable="true" height="10" preserveAspectRatio="none" transform="translate(0,3) scale(0,0.1)" width="0"/>
<ellipse cx="3" cy="3" fill="rgb(254, 255, 255)" height="6" rx="3" ry="3" stroke="rgb(39, 78, 19)" stroke-width="1px" style="cursor: default;" visibility="hidden" width="6"/>
</g>
<g focusable="true" height="100" preserveAspectRatio="none" transform="translate(753,-34) scale(1,1)" visibility="visible" width="100">
<rect fill="rgb(252,235,192)" fill-opacity="0" height="22" rx="3.3" ry="3.3" stroke="rgb(241,163,39)" stroke-opacity="0" stroke-width="1px" style="cursor: move;" width="149" x="-2" y="-3"/>
<rect fill="rgb(254, 255, 255)" height="16" rx="2.4" ry="2.4" stroke="rgb(39, 78, 19)" stroke-width="2px" style="cursor: move;" visibility="visible" width="145" x="0" y="0"/>
<text fill="rgb(39, 78, 19)" font-family="verdana" font-size="8.0625" font-style="normal" font-weight="normal" style="cursor: move;" visibility="visible" x="3" y="3">
<tspan dy="1em" x="3">Programmation d'une commande</tspan>
</text>
<ellipse cx="3" cy="3" fill="rgb(254, 255, 255)" height="6" rx="3" ry="3" stroke="rgb(39, 78, 19)" stroke-width="1px" style="cursor: default;" visibility="hidden" width="6"/>
<g focusable="true" height="10" preserveAspectRatio="none" transform="translate(0,3) scale(0,0.1)" width="0"/>
</g>
<g focusable="true" height="100" preserveAspectRatio="none" transform="translate(487,122) scale(1,1)" visibility="visible" width="100">
<rect fill="rgb(252,235,192)" fill-opacity="0" height="22" rx="3.3" ry="3.3" stroke="rgb(241,163,39)" stroke-opacity="0" stroke-width="1px" style="cursor: move;" width="163" x="-2" y="-3"/>
<rect fill="rgb(254, 255, 255)" height="16" rx="2.4" ry="2.4" stroke="rgb(39, 78, 19)" stroke-width="2px" style="cursor: move;" visibility="visible" width="159" x="0" y="0"/>
<text fill="rgb(39, 78, 19)" font-family="verdana" font-size="8.0625" font-style="normal" font-weight="normal" style="cursor: move;" visibility="visible" x="3" y="3">
<tspan dy="1em" x="3">Possibilité de venir chercher sa pizza</tspan>
</text>
<ellipse cx="3" cy="3" fill="rgb(254, 255, 255)" height="6" rx="3" ry="3" stroke="rgb(39, 78, 19)" stroke-width="1px" style="cursor: default;" visibility="hidden" width="6"/>
<g focusable="true" height="10" preserveAspectRatio="none" transform="translate(0,3) scale(0,0.1)" width="0"/>
</g>
<g focusable="true" height="100" preserveAspectRatio="none" transform="translate(753,-8) scale(1,1)" visibility="visible" width="100">
<rect fill="rgb(252,235,192)" fill-opacity="0" height="22" rx="3.3" ry="3.3" stroke="rgb(241,163,39)" stroke-opacity="0" stroke-width="1px" style="cursor: move;" width="139" x="-2" y="-3"/>
<rect fill="rgb(254, 255, 255)" height="16" rx="2.4" ry="2.4" stroke="rgb(39, 78, 19)" stroke-width="2px" style="cursor: move;" width="135" x="0" y="0"/>
<text fill="rgb(39, 78, 19)" font-family="verdana" font-size="8.0625" font-style="normal" font-weight="normal" style="cursor: move;" visibility="visible" x="3" y="3">
<tspan dy="1em" x="3">Paiement à réception sur place</tspan>
</text>
<ellipse cx="3" cy="3" fill="rgb(254, 255, 255)" height="6" rx="3" ry="3" stroke="rgb(39, 78, 19)" stroke-width="1px" style="cursor: default;" visibility="hidden" width="6"/>
<g focusable="true" height="10" preserveAspectRatio="none" transform="translate(0,3) scale(0,0.1)" width="0"/>
</g>
<g focusable="true" height="100" preserveAspectRatio="none" transform="translate(384,148) scale(1,1)" visibility="visible" width="100">
<rect fill="rgb(252,235,192)" fill-opacity="0" height="22" rx="3.3" ry="3.3" stroke="rgb(241,163,39)" stroke-opacity="0" stroke-width="1px" style="cursor: move;" width="58" x="-2" y="-3"/>
<line stroke="#495879" stroke-opacity="1" stroke-width="1px" style="cursor: move;" x1="0" x2="54" y1="16" y2="16"/>
<text fill="rgb(12, 52, 61)" font-family="verdana" font-size="8.0625" font-style="normal" font-weight="normal" style="cursor: move;" visibility="visible" x="3" y="3">
<tspan dy="1em" x="3">Aime sortir</tspan>
</text>
<g focusable="true" height="10" preserveAspectRatio="none" transform="translate(0,3) scale(0,0.1)" width="0"/>
<ellipse cx="57" cy="16" fill="rgb(57, 113, 177)" height="6" rx="3" ry="3" stroke="rgb(57, 113, 177)" stroke-width="1px" style="cursor: default;" visibility="visible" width="6"/>
</g>
<g focusable="true" height="100" preserveAspectRatio="none" transform="translate(384,174) scale(1,1)" visibility="visible" width="100">
<rect fill="rgb(252,235,192)" fill-opacity="0" height="22" rx="3.3" ry="3.3" stroke="rgb(241,163,39)" stroke-opacity="0" stroke-width="1px" style="cursor: move;" width="82" x="-2" y="-3"/>
<line stroke="#495879" stroke-opacity="1" stroke-width="1px" style="cursor: move;" x1="0" x2="78" y1="16" y2="16"/>
<text fill="rgb(12, 52, 61)" font-family="verdana" font-size="8.0625" font-style="normal" font-weight="normal" style="cursor: move;" visibility="visible" x="3" y="3">
<tspan dy="1em" x="3">Aime l'originalité</tspan>
</text>
<g focusable="true" height="10" preserveAspectRatio="none" transform="translate(0,3) scale(0,0.1)" width="0"/>
<ellipse cx="81" cy="16" fill="rgb(57, 113, 177)" height="6" rx="3" ry="3" stroke="rgb(57, 113, 177)" stroke-width="1px" style="cursor: default;" visibility="visible" width="6"/>
</g>
<g focusable="true" height="100" preserveAspectRatio="none" transform="translate(492,174) scale(1,1)" visibility="visible" width="100">
<rect fill="rgb(252,235,192)" fill-opacity="0" height="22" rx="3.3" ry="3.3" stroke="rgb(241,163,39)" stroke-opacity="0" stroke-width="1px" style="cursor: move;" width="192" x="-2" y="-3"/>
<rect fill="rgb(254, 255, 255)" height="16" rx="2.4" ry="2.4" stroke="rgb(39, 78, 19)" stroke-width="2px" style="cursor: move;" visibility="visible" width="188" x="0" y="0"/>
<text fill="rgb(39, 78, 19)" font-family="verdana" font-size="8.0625" font-style="normal" font-weight="normal" style="cursor: move;" visibility="visible" x="3" y="3">
<tspan dy="1em" x="3">Système de création de pizza personnalisée</tspan>
</text>
<ellipse cx="3" cy="3" fill="rgb(254, 255, 255)" height="6" rx="3" ry="3" stroke="rgb(39, 78, 19)" stroke-width="1px" style="cursor: default;" visibility="hidden" width="6"/>
<g focusable="true" height="10" preserveAspectRatio="none" transform="translate(0,3) scale(0,0.1)" width="0"/>
</g>
<g focusable="true" height="100" preserveAspectRatio="none" transform="translate(468,148) scale(1,1)" visibility="visible" width="100">
<rect fill="rgb(252,235,192)" fill-opacity="0" height="22" rx="3.3" ry="3.3" stroke="rgb(241,163,39)" stroke-opacity="0" stroke-width="1px" style="cursor: move;" width="229" x="-2" y="-3"/>
<rect fill="rgb(254, 255, 255)" height="16" rx="2.4" ry="2.4" stroke="rgb(39, 78, 19)" stroke-width="2px" style="cursor: move;" visibility="visible" width="225" x="0" y="0"/>
<text fill="rgb(39, 78, 19)" font-family="verdana" font-size="8.0625" font-style="normal" font-weight="normal" style="cursor: move;" visibility="visible" x="3" y="3">
<tspan dy="1em" x="3">Possibilité de sélectionner sa pizzeria à la commande</tspan>
</text>
<ellipse cx="3" cy="3" fill="rgb(254, 255, 255)" height="6" rx="3" ry="3" stroke="rgb(39, 78, 19)" stroke-width="1px" style="cursor: default;" visibility="hidden" width="6"/>
<g focusable="true" height="10" preserveAspectRatio="none" transform="translate(0,3) scale(0,0.1)" width="0"/>
</g>
<g focusable="true" height="100" preserveAspectRatio="none" transform="translate(502,70) scale(1,1)" visibility="visible" width="100">
<rect fill="rgb(252,235,192)" fill-opacity="0" height="22" rx="3.3" ry="3.3" stroke="rgb(241,163,39)" stroke-opacity="0" stroke-width="1px" style="cursor: move;" width="168" x="-2" y="-3"/>
<line stroke="#495879" stroke-opacity="1" stroke-width="1px" style="cursor: move;" x1="0" x2="164" y1="16" y2="16"/>
<text fill="rgb(12, 52, 61)" font-family="verdana" font-size="8.0625" font-style="normal" font-weight="normal" style="cursor: move;" visibility="visible" x="3" y="3">
<tspan dy="1em" x="3">Veut connaître l'état de sa commande</tspan>
</text>
<g focusable="true" height="10" preserveAspectRatio="none" transform="translate(0,3) scale(0,0.1)" width="0"/>
<ellipse cx="167" cy="16" fill="rgb(57, 113, 177)" height="6" rx="3" ry="3" stroke="rgb(57, 113, 177)" stroke-width="1px" style="cursor: default;" visibility="visible" width="6"/>
</g>
<g focusable="true" height="100" preserveAspectRatio="none" transform="translate(696,70) scale(1,1)" visibility="visible" width="100">
<rect fill="rgb(252,235,192)" fill-opacity="0" height="22" rx="3.3" ry="3.3" stroke="rgb(241,163,39)" stroke-opacity="0" stroke-width="1px" style="cursor: move;" width="113" x="-2" y="-3"/>
<rect fill="rgb(254, 255, 255)" height="16" rx="2.4" ry="2.4" stroke="rgb(39, 78, 19)" stroke-width="2px" style="cursor: move;" visibility="visible" width="109" x="0" y="0"/>
<text fill="rgb(39, 78, 19)" font-family="verdana" font-size="8.0625" font-style="normal" font-weight="normal" style="cursor: move;" visibility="visible" x="3" y="3">
<tspan dy="1em" x="3">Système de notifications</tspan>
</text>
<ellipse cx="3" cy="3" fill="rgb(254, 255, 255)" height="6" rx="3" ry="3" stroke="rgb(39, 78, 19)" stroke-width="1px" style="cursor: default;" visibility="hidden" width="6"/>
<g focusable="true" height="10" preserveAspectRatio="none" transform="translate(0,3) scale(0,0.1)" width="0"/>
</g>
<g focusable="true" height="100" preserveAspectRatio="none" transform="translate(-340,-9) scale(1,1)" visibility="visible" width="100">
<rect fill="rgb(252,235,192)" fill-opacity="0" height="25" rx="3.75" ry="3.75" stroke="rgb(241,163,39)" stroke-opacity="0" stroke-width="1px" style="cursor: move;" width="73" x="-2" y="-3"/>
<rect fill="rgb(102, 0, 0)" height="19" rx="2.85" ry="2.85" stroke="rgb(102, 0, 0)" stroke-width="2px" style="cursor: move;" width="69" x="0" y="0"/>
<text fill="rgb(254, 255, 255)" font-family="verdana" font-size="10.75" font-style="normal" font-weight="normal" style="cursor: move;" visibility="visible" x="3" y="3">
<tspan dy="1em" x="3">Préparateur</tspan>
</text>
<g focusable="true" height="13" preserveAspectRatio="none" transform="translate(0,3) scale(0,0.13)" width="0"/>
<ellipse cx="-3" cy="9.5" fill="rgb(102, 0, 0)" height="6" rx="3" ry="3" stroke="rgb(102, 0, 0)" stroke-width="1px" style="cursor: default;" visibility="visible" width="6"/>
</g>
<g focusable="true" height="100" preserveAspectRatio="none" transform="translate(-499,-47) scale(1,1)" visibility="visible" width="100">
<rect fill="rgb(252,235,192)" fill-opacity="0" height="22" rx="3.3" ry="3.3" stroke="rgb(241,163,39)" stroke-opacity="0" stroke-width="1px" style="cursor: move;" width="132" x="-2" y="-3"/>
<line stroke="#495879" stroke-opacity="1" stroke-width="1px" style="cursor: move;" visibility="visible" x1="0" x2="128" y1="16" y2="16"/>
<text fill="rgb(102, 0, 0)" font-family="verdana" font-size="8.0625" font-style="normal" font-weight="normal" style="cursor: move;" visibility="visible" x="3" y="3">
<tspan dy="1em" x="3">Gérer son équipe de livraison</tspan>
</text>
<g focusable="true" height="10" preserveAspectRatio="none" transform="translate(0,3) scale(0,0.1)" width="0"/>
<ellipse cx="-3" cy="16" fill="rgb(102, 0, 0)" height="6" rx="3" ry="3" stroke="rgb(82, 92, 97)" stroke-width="1px" style="cursor: default;" visibility="visible" width="6"/>
</g>
<g focusable="true" height="100" preserveAspectRatio="none" transform="translate(-685,-47) scale(1,1)" visibility="visible" width="100">
<rect fill="rgb(252,235,192)" fill-opacity="0" height="22" rx="3.3" ry="3.3" stroke="rgb(241,163,39)" stroke-opacity="0" stroke-width="1px" style="cursor: move;" width="161" x="-2" y="-3"/>
<rect fill="rgb(254, 255, 255)" height="16" rx="2.4" ry="2.4" stroke="rgb(39, 78, 19)" stroke-width="2px" style="cursor: move;" width="157" x="0" y="0"/>
<text fill="rgb(39, 78, 19)" font-family="verdana" font-size="8.0625" font-style="normal" font-weight="normal" style="cursor: move;" visibility="visible" x="3" y="3">
<tspan dy="1em" x="3">Système de notifications / Validation</tspan>
</text>
<g focusable="true" height="10" preserveAspectRatio="none" transform="translate(0,3) scale(0,0.1)" width="0"/>
<ellipse cx="3" cy="3" fill="rgb(254, 255, 255)" height="6" rx="3" ry="3" stroke="rgb(39, 78, 19)" stroke-width="1px" style="cursor: default;" visibility="hidden" width="6"/>
</g>
<g focusable="true" height="100" preserveAspectRatio="none" transform="translate(-479,-21) scale(1,1)" visibility="visible" width="100">
<rect fill="rgb(252,235,192)" fill-opacity="0" height="22" rx="3.3" ry="3.3" stroke="rgb(241,163,39)" stroke-opacity="0" stroke-width="1px" style="cursor: move;" width="113" x="-2" y="-3"/>
<line stroke="#495879" stroke-opacity="1" stroke-width="1px" style="cursor: move;" x1="0" x2="109" y1="16" y2="16"/>
<text fill="rgb(102, 0, 0)" font-family="verdana" font-size="8.0625" font-style="normal" font-weight="normal" style="cursor: move;" visibility="visible" x="3" y="3">
<tspan dy="1em" x="3">Se souvenir des produits</tspan>
</text>
<ellipse cx="-3" cy="16" fill="rgb(102, 0, 0)" height="6" rx="3" ry="3" stroke="rgb(82, 92, 97)" stroke-width="1px" style="cursor: default;" visibility="visible" width="6"/>
<g focusable="true" height="10" preserveAspectRatio="none" transform="translate(0,3) scale(0,0.1)" width="0"/>
</g>
<g focusable="true" height="100" preserveAspectRatio="none" transform="translate(-447,5) scale(1,1)" visibility="visible" width="100">
<rect fill="rgb(252,235,192)" fill-opacity="0" height="22" rx="3.3" ry="3.3" stroke="rgb(241,163,39)" stroke-opacity="0" stroke-width="1px" style="cursor: move;" width="80" x="-2" y="-3"/>
<line stroke="#495879" stroke-opacity="1" stroke-width="1px" style="cursor: move;" x1="0" x2="76" y1="16" y2="16"/>
<text fill="rgb(102, 0, 0)" font-family="verdana" font-size="8.0625" font-style="normal" font-weight="normal" style="cursor: move;" visibility="visible" x="3" y="3">
<tspan dy="1em" x="3">Gérer ses stocks</tspan>
</text>
<ellipse cx="-3" cy="16" fill="rgb(102, 0, 0)" height="6" rx="3" ry="3" stroke="rgb(82, 92, 97)" stroke-width="1px" style="cursor: default;" visibility="visible" width="6"/>
<g focusable="true" height="10" preserveAspectRatio="none" transform="translate(0,3) scale(0,0.1)" width="0"/>
</g>
<g focusable="true" height="100" preserveAspectRatio="none" transform="translate(-730,-21) scale(1,1)" visibility="visible" width="100">
<rect fill="rgb(252,235,192)" fill-opacity="0" height="22" rx="3.3" ry="3.3" stroke="rgb(241,163,39)" stroke-opacity="0" stroke-width="1px" style="cursor: move;" width="224" x="-2" y="-3"/>
<rect fill="rgb(254, 255, 255)" height="16" rx="2.4" ry="2.4" stroke="rgb(39, 78, 19)" stroke-width="2px" style="cursor: move;" visibility="visible" width="220" x="0" y="0"/>
<text fill="rgb(39, 78, 19)" font-family="verdana" font-size="8.0625" font-style="normal" font-weight="normal" style="cursor: move;" visibility="visible" x="3" y="3">
<tspan dy="1em" x="3">Aide-mémoire accessible dans le détail des produits</tspan>
</text>
<ellipse cx="3" cy="3" fill="rgb(254, 255, 255)" height="6" rx="3" ry="3" stroke="rgb(39, 78, 19)" stroke-width="1px" style="cursor: default;" visibility="hidden" width="6"/>
<g focusable="true" height="10" preserveAspectRatio="none" transform="translate(0,3) scale(0,0.1)" width="0"/>
</g>
<g focusable="true" height="100" preserveAspectRatio="none" transform="translate(-635,5) scale(1,1)" visibility="visible" width="100">
<rect fill="rgb(252,235,192)" fill-opacity="0" height="22" rx="3.3" ry="3.3" stroke="rgb(241,163,39)" stroke-opacity="0" stroke-width="1px" style="cursor: move;" width="163" x="-2" y="-3"/>
<rect fill="rgb(254, 255, 255)" height="16" rx="2.4" ry="2.4" stroke="rgb(39, 78, 19)" stroke-width="2px" style="cursor: move;" visibility="visible" width="159" x="0" y="0"/>
<text fill="rgb(39, 78, 19)" font-family="verdana" font-size="8.0625" font-style="normal" font-weight="normal" style="cursor: move;" visibility="visible" x="3" y="3">
<tspan dy="1em" x="3">Consultation / modification de stocks</tspan>
</text>
<ellipse cx="3" cy="3" fill="rgb(254, 255, 255)" height="6" rx="3" ry="3" stroke="rgb(39, 78, 19)" stroke-width="1px" style="cursor: default;" visibility="hidden" width="6"/>
<g focusable="true" height="10" preserveAspectRatio="none" transform="translate(0,3) scale(0,0.1)" width="0"/>
</g>
<g focusable="true" height="100" preserveAspectRatio="none" transform="translate(-467,31) scale(1,1)" visibility="visible" width="100">
<rect fill="rgb(252,235,192)" fill-opacity="0" height="22" rx="3.3" ry="3.3" stroke="rgb(241,163,39)" stroke-opacity="0" stroke-width="1px" style="cursor: move;" width="101" x="-2" y="-3"/>
<line stroke="#495879" stroke-opacity="1" stroke-width="1px" style="cursor: move;" x1="0" x2="97" y1="16" y2="16"/>
<text fill="rgb(102, 0, 0)" font-family="verdana" font-size="8.0625" font-style="normal" font-weight="normal" style="cursor: move;" visibility="visible" x="3" y="3">
<tspan dy="1em" x="3">Mettre à jour sa carte</tspan>
</text>
<ellipse cx="-3" cy="16" fill="rgb(102, 0, 0)" height="6" rx="3" ry="3" stroke="rgb(82, 92, 97)" stroke-width="1px" style="cursor: default;" visibility="visible" width="6"/>
<g focusable="true" height="10" preserveAspectRatio="none" transform="translate(0,3) scale(0,0.1)" width="0"/>
</g>
<g focusable="true" height="100" preserveAspectRatio="none" transform="translate(-708,31) scale(1,1)" visibility="visible" width="100">
<rect fill="rgb(252,235,192)" fill-opacity="0" height="22" rx="3.3" ry="3.3" stroke="rgb(241,163,39)" stroke-opacity="0" stroke-width="1px" style="cursor: move;" width="214" x="-2" y="-3"/>
<rect fill="rgb(254, 255, 255)" height="16" rx="2.4" ry="2.4" stroke="rgb(39, 78, 19)" stroke-width="2px" style="cursor: move;" visibility="visible" width="210" x="0" y="0"/>
<text fill="rgb(39, 78, 19)" font-family="verdana" font-size="8.0625" font-style="normal" font-weight="normal" style="cursor: move;" visibility="visible" x="3" y="3">
<tspan dy="1em" x="3">Possibilité d'ajouter/supprimer/modifier une pizza</tspan>
</text>
<ellipse cx="3" cy="3" fill="rgb(254, 255, 255)" height="6" rx="3" ry="3" stroke="rgb(39, 78, 19)" stroke-width="1px" style="cursor: default;" visibility="hidden" width="6"/>
<g focusable="true" height="10" preserveAspectRatio="none" transform="translate(0,3) scale(0,0.1)" width="0"/>
</g>
<rect fill="#CC0033" fill-opacity="0.4" height="6" rx="0" ry="0" stroke="#FF9933" stroke-opacity="0.4" stroke-width="1px" visibility="hidden" width="50" x="-331" y="-46"/>
</svg>
